# xmcd CD database file
#
# Track frame offsets:
#	150
#	11721
#	24038
#	35788
#	48180
#	59841
#	71663
#	83880
#	95072
#	106871
#	120182
#	132048
#	143915
#	160493
#	176453
#	190056
#	210304
#	222613
#	234451
#	245497
#	257995
#	269233
#
# Disc length: 3772 seconds
#
# Revision: 0
# Processed by: cddbd v1.5.1PL2 Copyright (c) Steve Scherf et al.
# Submitted via: CDex 1.51
#
DISCID=430eba16
DTITLE=Charlie Rich - Set Me Free and The Fabulous Charlie Rich
DYEAR=1900
DGENRE=Country
TTITLE0=Set Me Free
TTITLE1=By The Time I Get To Phoenix
TTITLE2=The Proudest Lonelist Fool
TTITLE3=I Miss You So
TTITLE4=Just Like Old Times
TTITLE5=Try A Little Tenderness
TTITLE6=H2O
TTITLE7=Very Much Alone
TTITLE8=I'll Just Go Away
TTITLE9=That's The Day (You Said You'd Stop Loving Me)
TTITLE10=Got To See My Baby
TTITLE11=I Almost Lost My Mind
TTITLE12=Life Has Its Little Ups And Downs
TTITLE13=San Francisco Is A Lonely Town
TTITLE14=Sittin' And Thinkin'
TTITLE15=July 12, 1939
TTITLE16=Bright Lights Big City and Medley
TTITLE17=Raggedy Ann
TTITLE18=Have You Ever Been Lonely (Have You Ever Been Blue)
TTITLE19=A Picture Of You
TTITLE20=Love Waits For Me
TTITLE21=It Makes Me Want To Cry
EXTD=
EXTT0=
EXTT1=
EXTT2=
EXTT3=
EXTT4=
EXTT5=
EXTT6=
EXTT7=
EXTT8=
EXTT9=
EXTT10=
EXTT11=
EXTT12=
EXTT13=
EXTT14=
EXTT15=
EXTT16=
EXTT17=
EXTT18=
EXTT19=
EXTT20=
EXTT21=
PLAYORDER=
